<svg width="2279" height="1045" xmlns="http://www.w3.org/2000/svg" xmlns:xlink="http://www.w3.org/1999/xlink" xml:space="preserve" overflow="hidden"><g transform="translate(-105 -156)"><path d="M240.18 509.707C235.753 509.079 229.087 506.271 225.063 503.264 220.032 499.531 214.272 492.627 211.328 486.845 207.203 478.784 204.789 470.293 204.235 461.737L204.059 459.193 201.745 456.55C193.797 447.597 186.552 435.043 181.974 422.39 178.905 413.899 177.22 406.863 173.548 387.338 168.668 361.271 164.794 350.568 155.94 338.641 148.067 328.036 138.332 320.14 123.994 312.674 120.75 310.989 110.764 306.562 100.476 302.267 85.1571 295.825 79.8497 293.182 71.4233 287.731 62.7706 282.148 54.8719 275.342 46.521 266.224 43.0247 262.425 34.1955 250.73 31.0514 245.774 19.9084 228.165 11.7084 208.872 6.02327 186.902-6.78 137.479-4.36521 79.763 12.2868 36.0881 18.3487 20.1314 25.5679 7.0818 34.9756-4.97709 92.3346 35.4697 176.438 12.6795 55.6017 7.80855 51.7529 11.8061 44.2068 21.7171 41.0878 26.9038 27.3288 49.6333 19.506 76.5254 17.4685 108.175 17.0912 114.121 17.1667 129.748 17.5942 136.19 19.0785 158.292 23.3795 178.61 30.7999 198.366 42.9493 230.875 62.2169 256.808 86.6665 273.624 93.2063 278.15 101.18 282.445 116.071 289.482 135.188 298.534 144.344 304.117 153.299 312.113 164.039 321.693 171.083 332.364 175.837 346.273 178.755 354.73 180.666 363.452 184.238 384.496 187.432 403.196 189.948 414.263 194.098 427.94 197.72 439.834 200.739 447.862 206.575 461.076 212.31 474.06 214.096 477.265 220.082 485.127 227.578 494.972 235.25 501.448 246.544 507.394L250.87 509.641 249.562 509.872C247.802 510.136 242.695 510.037 240.18 509.707Z" stroke="#000000" stroke-width="0" stroke-miterlimit="8" fill-rule="evenodd" transform="matrix(1 0 0 -1 436.5 1035.5)"/><path d="M32.2342 55.6774C30.1022 55.3458 25.1689 53.852 23.1608 52.8896 20.5579 51.6944 16.2443 48.8402 13.914 46.815 9.67525 43.1307 5.11381 36.9237 2.1143 30.7167-1.33179 23.5803-3.81079 13.3899-4.133 4.92599-4.28172 1.0424-3.86036-7.12285-3.48814-8.08573-3.38899-8.35096-2.96764-7.18927-2.47192-5.26397-0.686916 1.80602 1.61859 9.47334 3.20487 13.5892 5.21295 18.9001 8.95647 26.5345 11.4603 30.5175 13.9641 34.5005 19.393 41.5709 22.3677 44.7239 24.5493 47.0477 30.1022 52.0595 33.523 54.8144L34.8371 55.8767 33.9692 55.8437C33.4982 55.8103 32.7051 55.7439 32.2342 55.6774Z" stroke="#000000" stroke-width="0" stroke-miterlimit="8" fill-rule="evenodd" transform="matrix(1 0 0 -1 662.5 585.5)"/><path d="M4.99242 36.4612C3.35012 35.3703 2.55334 34.5111 0.790319 32.0658-0.393219 30.4135-1.74534 28.2327-2.17995 27.2412-4.16028 22.6479-4.86048 16.6006-4.03955 11.247-3.24277 6.02566 0.210838-0.880795 3.59158-3.98697 5.74092-5.93704 9.04922-7.68828 11.1503-7.95279L12.6235-8.15073 11.0778-6.89521C9.04922-5.17681 6.29625-1.93838 5.06485 0.242916 2.7465 4.37338 1.82856 8.76881 1.80441 15.7081 1.80441 19.5084 1.90099 20.6649 2.43218 23.4409 3.10867 26.8449 5.35459 33.6852 6.70672 36.3618 7.11718 37.1882 7.35906 37.849 7.23791 37.849 7.11718 37.849 6.10309 37.221 4.99242 36.4612Z" stroke="#000000" stroke-width="0" stroke-miterlimit="8" fill-rule="evenodd" transform="matrix(1 0 0 -1 692.5 572.5)"/><path d="M8.35793 176.719C19.7114 167.975 23.7629 163.257 26.8638 155.041 28.5895 150.554 30.5402 141.546 32.1404 130.922 33.0406 124.917 33.5661 122.97 36.392 115.249 39.4179 106.935 40.393 103.668 41.0435 99.841 42.7438 89.7773 38.7428 78.4273 30.9153 71.0361 28.9145 69.1555 26.2637 67.539 19.7864 64.2392 11.5588 60.0158 8.13289 57.4426 4.40645 52.559-1.19527 45.2343-4.79624 34.841-5.1713 24.8434-5.5468 14.945-2.79595 4.22156 1.90564-2.641 3.08126-4.35675 5.50706-6.96361 5.50706-6.50144 5.50706-6.40263 5.18201-5.47872 4.78151-4.42277 3.83137-1.91517 2.90623 2.01129 2.20568 6.56432 1.70561 9.86377 1.6306 11.2826 1.6306 18.2444 1.6306 25.2723 1.70561 26.4931 2.18068 29.0007 4.38145 40.4172 10.0582 49.9194 17.6356 54.803 18.8613 55.6276 21.9622 57.2773 24.513 58.4981 27.0638 59.7189 30.1147 61.3026 31.3153 61.9629 38.1172 65.8233 42.8688 71.1682 46.1452 78.625 46.3952 79.1859 46.5452 79.1859 49.0211 78.2953 58.1237 75.1607 67.7519 68.3965 74.0042 60.7749 75.9295 58.4321 75.7795 58.9271 73.5537 62.2597 68.302 70.0466 59.0243 78.1632 50.5213 82.3866 49.0461 83.1124 47.8954 83.8715 47.8954 84.1351 47.8954 84.8282 49.9462 85.125 53.8977 84.927 61.6001 84.5313 68.9526 82.1557 75.3544 77.9324 76.555 77.1405 77.5302 76.5463 77.5302 76.6123 77.5302 76.9092 73.9792 79.813 71.7284 81.3967 65.7762 85.554 58.7493 88.2264 51.1468 89.1836L49.3961 89.4144 50.2712 90.0414C51.6219 90.9981 55.4479 92.549 57.5737 92.978 60.3745 93.5717 66.1012 93.2749 68.7021 92.351 72.2535 91.1302 75.3794 89.1836 78.4053 86.2798 79.0808 85.6528 78.8804 85.9829 77.7802 87.3685 74.6793 91.229 69.8027 94.4624 65.0261 95.8152 61.8002 96.7392 54.9228 96.6731 51.9469 95.6836 50.7213 95.2875 49.6962 94.9574 49.6211 94.9574 49.5711 94.9574 49.5211 95.8152 49.5211 96.8712 49.5211 101.161 47.8954 107.1 43.5944 118.549 40.7935 126.006 40.243 127.92 37.4171 139.5 34.8163 150.191 32.7655 155.8 29.3396 161.673 26.0387 167.315 23.9879 169.658 20.1114 172.165 16.5605 174.442 11.4838 176.653 8.38293 177.246L7.38234 177.445Z" stroke="#000000" stroke-width="0" stroke-miterlimit="8" fill-rule="evenodd" transform="matrix(1 0 0 -1 697.5 755.5)"/><path d="M1.05787 19.2872C-1.47614 18.1788-3.19003 16.0973-4.28338 12.8069-5.10306 10.3557-5.05339 6.49443-4.13435 3.80826-3.21486 1.0549-1.72453-1.46306 0.0891539-3.3096 2.72252-5.99577 6.49848-7.94332 7.4428-7.10415 7.74087-6.8354 7.64151-6.53328 6.77215-5.35817L5.72847-3.9143 6.4488-1.89956C7.64151 1.39085 7.96442 6.96475 7.19441 10.9599 6.9957 11.934 7.02054 12.0345 7.34344 11.6652 7.98926 10.9599 8.41152 9.51654 8.68475 7.13249 8.83378 5.85637 9.00765 4.78226 9.08217 4.68125 9.30616 4.37913 10.6723 6.49443 10.9455 7.60235 11.5417 10.0198 10.6971 13.881 9.05733 16.3323 7.19441 19.119 3.64156 20.4285 1.05787 19.2872ZM3.34349 13.4784C2.52381 10.725 2.17607 4.24476 2.69768 1.18928 2.92123-0.0863852 2.92123-0.0863852 2.42445 0.517854 1.50541 1.59241 0.0394761 4.95001-0.258591 6.6288-0.780208 9.5499 0.138832 12.2361 2.07671 13.4112 3.34349 14.1836 3.56704 14.1836 3.34349 13.4784Z" stroke="#000000" stroke-width="0" stroke-miterlimit="8" fill-rule="evenodd" transform="matrix(1 0 0 -1 713.5 632.5)"/><path d="M39.5274 76.393C29.1544 75.6317 19.3127 72.1571 11.065 66.3657 9.57254 65.34 8.3579 64.4134 8.3579 64.3471 8.3579 64.2809 9.7749 65.1085 11.495 66.2004 30.5461 78.1138 55.8208 76.8894 79.0714 62.9903 85.0927 59.3833 85.3962 59.6811 75.605 59.4495 67.3321 59.2508 64.6503 59.0522 57.0603 58.0598 39.4515 55.7101 21.7415 50.0182 7.59904 42.1091 3.44967 39.7923-3.86163 35.06-4.41858 34.332-4.54506 34.1338-3.53279 34.7623-2.11624 35.656 6.76428 41.4469 19.2368 46.8081 31.2544 49.952 44.4356 53.3937 56.2002 54.9159 69.3309 54.8825L76.5414 54.8825 72.8727 53.7243C49.7738 46.5766 29.7114 33.7694 17.0614 18.0837 12.2796 12.1603 7.64963 4.18497 4.84138-2.99615 4.10781-4.81654 3.60144-6.30538 3.65204-6.30538 3.72792-6.30538 4.1331-5.44541 4.53783-4.38633 8.50967 5.83958 17.3396 17.8521 26.8268 25.8936 41.855 38.6013 62.5503 47.9334 83.8785 51.6066 86.1045 52.0035 87.9768 52.3675 88.0021 52.4337 88.0527 52.4999 87.9768 53.6252 87.7997 54.9159L87.4962 57.2985 86.3827 57.0669C85.2697 56.8683 85.2697 56.8683 85.2697 57.8611L85.2697 58.854 86.2057 58.1589 87.1168 57.4309 88.3562 59.2508C89.0144 60.2108 89.5709 61.2032 89.5709 61.4019 89.5709 61.8983 83.3721 65.7373 79.0461 67.9541 69.3309 72.8522 59.7927 75.5655 49.2173 76.4259 44.5621 76.7899 44.5115 76.7899 39.5274 76.393Z" stroke="#000000" stroke-width="0" stroke-miterlimit="8" fill-rule="evenodd" transform="matrix(1 0 0 -1 645.5 724.5)"/><path d="M6.49915 148.632C3.36361 141.363 1.4877 135.246-0.106002 127.155-2.98457 112.453-3.98723 100.941-3.75549 85.2192-3.57561 72.1948-3.01027 67.1296-0.61995 56.4732 4.16069 35.2586 14.6728 14.9326 26.0329 4.93396 28.3204 2.92769 36.031-2.66398 36.2109-2.46653 36.2623-2.40072 34.9255 0.0989478 33.2295 3.05888 21.6634 23.3526 16.8314 35.6208 12.1026 56.6044 5.47126 86.0416 4.49475 105.546 7.6303 146.363 7.83588 149.125 7.96436 151.46 7.91297 151.526 7.86157 151.592 7.21914 150.277 6.49915 148.632Z" stroke="#000000" stroke-width="0" stroke-miterlimit="8" fill-rule="evenodd" transform="matrix(1 0 0 -1 632.5 1035.5)"/><path d="M-2.31173 33.3083C-4.63065 31.4062 9.0331 19.6305 19.344 14.6449 29.3021 9.85612 42.1089 6.80561 59.0498 5.26383 70.924 4.14891 78.1594 3.9846 98.504 4.28018 141.21 4.87046 140.126 4.9361 148.243 0.737624 152.403-1.42747 153.588-1.85388 153.412-1.13189 153.21-0.377742 149.907 2.70536 147.664 4.21455 144.714 6.21533 143.353 6.87124 139.496 8.18307 131.1 11.0697 121.748 12.2503 93.2099 14.0872 72.8653 15.3995 62.8316 16.4161 50.4785 18.3843 39.9407 20.09 30.6128 22.189 22.3944 24.78 16.4701 26.65 14.0247 27.5685 7.36907 30.5203 1.19277 33.21-1.47949 33.9972-2.31173 33.3083Z" stroke="#000000" stroke-width="0" stroke-miterlimit="8" fill-rule="evenodd" transform="matrix(1 0 0 -1 509.5 1049.5)"/><path d="M402.384 286.263C299.605 286.263 216.27 369.545 216.27 472.215L216.27 812.788C216.27 915.496 299.605 998.777 402.384 998.777L455.691 998.777C558.47 998.777 641.805 915.496 641.805 812.788L641.805 472.215C641.805 369.545 558.47 286.263 455.691 286.263ZM388.525 156.502 469.55 156.502C625.824 156.502 752.519 283.1 752.519 439.282L752.519 845.759C752.519 1001.9 625.824 1128.5 469.55 1128.5L388.525 1128.5C232.215 1128.5 105.519 1001.9 105.519 845.759L105.519 439.282C105.519 283.1 232.215 156.502 388.525 156.502Z" stroke="#000000" stroke-width="0" stroke-miterlimit="8" fill-rule="evenodd"/><path d="M642.646 621.494C617.102 602.302 611.413 583.946 597.498 553.494 619.142 558.291 640.527 563.059 650.498 571.302" stroke="#000000" stroke-width="0" stroke-miterlimit="8" fill-rule="evenodd"/><path d="M502.498 1040.2C530.415 1023.34 561.385 1012.36 591.905 1007.89 613.46 1004.74 648.402 1007.12 667.293 1013.04 709.837 1026.35 739.218 1052.56 747.932 1084.95 752.06 1100.3 751.241 1113.77 745.233 1129.36 732.122 1163.39 697.989 1189.04 688.271 1172.17 685.739 1167.77 689.211 1160.56 701.039 1145.68 708.083 1136.81 709.961 1133.47 711.802 1126.55 717.33 1105.74 707.74 1083.73 686.484 1068.43 670.584 1056.98 661.793 1053.65 638.26 1050.19 595.27 1043.86 567.625 1051.67 515.71 1084.79" stroke="#000000" stroke-width="0" stroke-miterlimit="8" fill-rule="evenodd"/><path d="M463.796 992.211C439.888 927.948 446.341 850.792 480.313 794.76 498.264 765.148 515.242 750.355 554.424 730.18 574.641 719.771 583.162 714.213 591.95 705.703 611.062 687.196 616.148 674.979 624.735 626.927 627.75 610.051 630.518 595.932 630.886 595.551 631.252 595.172 634.016 596.676 637.025 598.896L642.498 602.93 642.488 711.651C642.476 829.591 641.732 841.566 632.635 870.394 630.062 878.546 641.415 900.162 636.978 908.825 611.914 959.829 615.092 917.581 576.99 958.103 553.931 979.713 520.974 997.015 489.792 1003.88 469.421 1008.37 469.885 1008.58 463.796 992.211Z" stroke="#000000" stroke-width="0" stroke-miterlimit="8" fill-rule="evenodd"/><path d="M629.572 614.029C629.612 613.785 629.667 613.545 629.695 613.499 629.723 613.453 629.915 613.659 630.122 613.953L630.499 614.493 629.999 614.484 629.498 614.475Z" stroke="#000000" stroke-width="0" stroke-miterlimit="8" fill-rule="evenodd"/><path d="M628.498 611.493 632.498 611.493 632.498 616.493 628.498 616.493Z" stroke="#000000" stroke-width="0" stroke-miterlimit="8" fill-rule="evenodd"/><text font-family="Alasassy Caps,Alasassy Caps_MSFontService,sans-serif" font-weight="700" font-size="220" transform="matrix(1 0 0 1 797.353 482)">Qu</text><text font-family="Alasassy Caps,Alasassy Caps_MSFontService,sans-serif" font-weight="400" font-size="183" transform="matrix(1 0 0 1 982.406 482)">antum</text><text font-family="Alasassy Caps,Alasassy Caps_MSFontService,sans-serif" font-weight="700" font-size="220" transform="matrix(1 0 0 1 1397.2 482)">i</text><text font-family="Alasassy Caps,Alasassy Caps_MSFontService,sans-serif" font-weight="400" font-size="183" transform="matrix(1 0 0 1 1439.59 482)">nformation</text><text font-family="Alasassy Caps,Alasassy Caps_MSFontService,sans-serif" font-weight="700" font-size="220" transform="matrix(1 0 0 1 797.353 746)">C</text><text font-family="Alasassy Caps,Alasassy Caps_MSFontService,sans-serif" font-weight="400" font-size="183" transform="matrix(1 0 0 1 878.708 746)">omputation</text><text font-family="Alasassy Caps,Alasassy Caps_MSFontService,sans-serif" font-weight="400" font-size="183" transform="matrix(1 0 0 1 1608.6 746)">&amp;</text><text font-family="Alasassy Caps,Alasassy Caps_MSFontService,sans-serif" font-weight="700" font-size="220" transform="matrix(1 0 0 1 797.353 1010)">C</text><text font-family="Alasassy Caps,Alasassy Caps_MSFontService,sans-serif" font-weight="400" font-size="183" transform="matrix(1 0 0 1 878.708 1010)">ommunication</text></g></svg>